<svg id="e5G30jwCShs1" xmlns="http://www.w3.org/2000/svg" xmlns:xlink="http://www.w3.org/1999/xlink" viewBox="0 0 400 400" shape-rendering="geometricPrecision" text-rendering="geometricPrecision" project-id="da93ad63cb014160b0fd7622aabaacf4" export-id="1add4db0ddc34132ba17ac23370d7038" cached="false"><g transform="matrix(.934459 0 0 0.934459 13.570677 13.127461)"><path d="M200,200L86.737621,282.289935C40.814015,221.826507,61.610855,118.824727,127.244976,79.369117L200,200Z" transform="translate(-11 1)" fill="#daecb1" stroke="#347d88" stroke-width="15"/><path d="M200,200L187.441896,399.605346c-60.744823-3.821741-116.443668-35.096738-151.329489-84.97177L200,200Z" transform="translate(-11 1)" fill="#fbcbc2" stroke="#347d88" stroke-width="15"/><path d="M200,200l76.412083,105.172209c-24.726264,17.964683-50.502178,26.643109-80.991071,24.511118L200,200Z" transform="translate(-9.750462 1)" fill="#caebec" stroke="#347d88" stroke-width="15"/><path d="M200,200l157.16596,29.98101c-9.12396,47.829473-25.654887,69.821663-67.112538,99.702317L200,200Z" transform="translate(-11 1)" fill="#daecb1" stroke="#347d88" stroke-width="15"/><path d="M205.59654,198.982447l175.36887-84.138305c17.983151,38.21614,23.406249,81.144383,15.49204,122.632121L205.59654,198.982447Z" transform="translate(-9.750462 2.249538)" fill="#fbcbc2" stroke="#347d88" stroke-width="15"/><path d="M200,200L254.439074,39.684559c41.17362,14.823416,76.224981,50.465974,94.85739,90.061858L200,200Z" transform="translate(-11-.017553)" fill="#daecb1" stroke="#347d88" stroke-width="15"/><path d="M200,200L168.713107,2.462332c31.980554-5.065222,64.712757-2.290068,95.384057,8.087005L200,200Z" transform="translate(-9.929862-.017553)" fill="#f8d3a5" stroke="#347d88" stroke-width="15"/><path d="M200,200L111.175244,55.051172c19.034951-11.664633,40.181033-19.465835,62.230897-22.95819L200,200Z" transform="translate(-13.140276-1.267091)" fill="#caebec" stroke="#347d88" stroke-width="15"/></g></svg>
