<svg id="basic-svg" width="675" height="250" xmlns="http://www.w3.org/2000/svg" xmlns:xlink="http://www.w3.org/1999/xlink" alt="Fraction Model will be displayed here."><circle cx="112.5" cy="125" r="100" stroke="#000000" fill="none" stroke-width="4"/><path fill="#f8f47c" d="&#10;      M 112.5,125 &#10;      L 112.5,223.0 &#10;      A 98,98 0 0 1 14.5,125.0 &#10;      Z&#10;    "/><path fill="#f8f47c" d="&#10;      M 112.5,125 &#10;      L 14.5,125.0 &#10;      A 98,98 0 0 1 112.5,27.0 &#10;      Z&#10;    "/><path fill="#f8f47c" d="&#10;      M 112.5,125 &#10;      L 112.5,27.0 &#10;      A 98,98 0 0 1 210.5,125.0 &#10;      Z&#10;    "/><path fill="#f8f47c" d="&#10;      M 112.5,125 &#10;      L 210.5,125.0 &#10;      A 98,98 0 0 1 112.5,223.0 &#10;      Z&#10;    "/><path fill="#f8f47c" d="&#10;      M 112.5,125 &#10;      L 112.5,223.0 &#10;      A 98,98 0 0 1 14.5,125.0 &#10;      Z&#10;    "/><path fill="#f8f47c" d="&#10;      M 112.5,125 &#10;      L 14.5,125.0 &#10;      A 98,98 0 0 1 112.5,27.0 &#10;      Z&#10;    "/><path fill="#f8f47c" d="&#10;      M 112.5,125 &#10;      L 112.5,27.0 &#10;      A 98,98 0 0 1 210.5,125.0 &#10;      Z&#10;    "/><path fill="#f8f47c" d="&#10;      M 112.5,125 &#10;      L 210.5,125.0 &#10;      A 98,98 0 0 1 112.5,223.0 &#10;      Z&#10;    "/><path fill="#f8f47c" d="&#10;      M 112.5,125 &#10;      L 112.5,223.0 &#10;      A 98,98 0 0 1 14.5,125.0 &#10;      Z&#10;    "/><path fill="#f8f47c" d="&#10;      M 112.5,125 &#10;      L 14.5,125.0 &#10;      A 98,98 0 0 1 112.5,27.0 &#10;      Z&#10;    "/><path fill="#f8f47c" d="&#10;      M 112.5,125 &#10;      L 112.5,27.0 &#10;      A 98,98 0 0 1 210.5,125.0 &#10;      Z&#10;    "/><line x1="112.5" y1="225.0" x2="112.5" y2="125" stroke="#000000" stroke-width="4"/><line x1="12.5" y1="125.0" x2="112.5" y2="125" stroke="#000000" stroke-width="4"/><line x1="112.5" y1="25.0" x2="112.5" y2="125" stroke="#000000" stroke-width="4"/><line x1="212.5" y1="125.0" x2="112.5" y2="125" stroke="#000000" stroke-width="4"/><circle cx="337.5" cy="125" r="100" stroke="#000000" fill="none" stroke-width="4"/><path fill="#f8f47c" d="&#10;      M 337.5,125 &#10;      L 337.5,223.0 &#10;      A 98,98 0 0 1 239.5,125.0 &#10;      Z&#10;    "/><path fill="#f8f47c" d="&#10;      M 337.5,125 &#10;      L 239.5,125.0 &#10;      A 98,98 0 0 1 337.5,27.0 &#10;      Z&#10;    "/><path fill="#f8f47c" d="&#10;      M 337.5,125 &#10;      L 337.5,27.0 &#10;      A 98,98 0 0 1 435.5,125.0 &#10;      Z&#10;    "/><path fill="#f8f47c" d="&#10;      M 337.5,125 &#10;      L 435.5,125.0 &#10;      A 98,98 0 0 1 337.5,223.0 &#10;      Z&#10;    "/><path fill="#f8f47c" d="&#10;      M 337.5,125 &#10;      L 337.5,223.0 &#10;      A 98,98 0 0 1 239.5,125.0 &#10;      Z&#10;    "/><path fill="#f8f47c" d="&#10;      M 337.5,125 &#10;      L 239.5,125.0 &#10;      A 98,98 0 0 1 337.5,27.0 &#10;      Z&#10;    "/><path fill="#f8f47c" d="&#10;      M 337.5,125 &#10;      L 337.5,27.0 &#10;      A 98,98 0 0 1 435.5,125.0 &#10;      Z&#10;    "/><line x1="337.5" y1="225.0" x2="337.5" y2="125" stroke="#000000" stroke-width="4"/><line x1="237.5" y1="125.0" x2="337.5" y2="125" stroke="#000000" stroke-width="4"/><line x1="337.5" y1="25.0" x2="337.5" y2="125" stroke="#000000" stroke-width="4"/><line x1="437.5" y1="125.0" x2="337.5" y2="125" stroke="#000000" stroke-width="4"/><circle cx="562.5" cy="125" r="100" stroke="#000000" fill="none" stroke-width="4"/><path fill="#f8f47c" d="&#10;      M 562.5,125 &#10;      L 562.5,223.0 &#10;      A 98,98 0 0 1 464.5,125.0 &#10;      Z&#10;    "/><path fill="#f8f47c" d="&#10;      M 562.5,125 &#10;      L 464.5,125.0 &#10;      A 98,98 0 0 1 562.5,27.0 &#10;      Z&#10;    "/><path fill="#f8f47c" d="&#10;      M 562.5,125 &#10;      L 562.5,27.0 &#10;      A 98,98 0 0 1 660.5,125.0 &#10;      Z&#10;    "/><line x1="562.5" y1="225.0" x2="562.5" y2="125" stroke="#000000" stroke-width="4"/><line x1="462.5" y1="125.0" x2="562.5" y2="125" stroke="#000000" stroke-width="4"/><line x1="562.5" y1="25.0" x2="562.5" y2="125" stroke="#000000" stroke-width="4"/><line x1="662.5" y1="125.0" x2="562.5" y2="125" stroke="#000000" stroke-width="4"/></svg>