<svg id="basic-svg" width="260" height="250" xmlns="http://www.w3.org/2000/svg" xmlns:xlink="http://www.w3.org/1999/xlink" alt="Fraction Model will be displayed here."><circle cx="130" cy="125" r="120" stroke="black" fill="transparent" stroke-width="5"/><path fill="#52a4b0" d="&#10;      M 130,125 &#10;      L 130.0,242.5 &#10;      A 117.5,117.5 0 0 1 38.1,198.3 &#10;      Z&#10;    "/><path fill="#52a4b0" d="&#10;      M 130,125 &#10;      L 38.1,198.3 &#10;      A 117.5,117.5 0 0 1 15.4,98.9 &#10;      Z&#10;    "/><path fill="#52a4b0" d="&#10;      M 130,125 &#10;      L 15.4,98.9 &#10;      A 117.5,117.5 0 0 1 79.0,19.1 &#10;      Z&#10;    "/><line x1="130.0" y1="245.0" x2="130" y2="125" stroke="black" stroke-width="5"/><line x1="36.2" y1="199.8" x2="130" y2="125" stroke="black" stroke-width="5"/><line x1="13.0" y1="98.3" x2="130" y2="125" stroke="black" stroke-width="5"/><line x1="77.9" y1="16.9" x2="130" y2="125" stroke="black" stroke-width="5"/><line x1="182.1" y1="16.9" x2="130" y2="125" stroke="black" stroke-width="5"/><line x1="247.0" y1="98.3" x2="130" y2="125" stroke="black" stroke-width="5"/><line x1="223.8" y1="199.8" x2="130" y2="125" stroke="black" stroke-width="5"/></svg>