<svg xmlns="http://www.w3.org/2000/svg" id="multiplication-svg" width="452.19999999999993" height="250" preserveAspectRatio="xMidYMid meet" alt="multiplication visual will be displayed here"><circle cx="50.6" cy="53.4" r="30.6" stroke="black" fill="none" stroke-width="5"/><circle cx="50.6" cy="53.4" r="28.1" stroke="none" fill="#52a4b0" stroke-width="5"/><circle cx="121.80000000000001" cy="53.4" r="30.6" stroke="black" fill="none" stroke-width="5"/><circle cx="121.80000000000001" cy="53.4" r="28.1" stroke="none" fill="#52a4b0" stroke-width="5"/><circle cx="193" cy="53.4" r="30.6" stroke="black" fill="none" stroke-width="5"/><circle cx="193" cy="53.4" r="28.1" stroke="none" fill="#52a4b0" stroke-width="5"/><circle cx="264.2" cy="53.4" r="30.6" stroke="black" fill="none" stroke-width="5"/><circle cx="264.2" cy="53.4" r="28.1" stroke="none" fill="#52a4b0" stroke-width="5"/><circle cx="335.4" cy="53.4" r="30.6" stroke="black" fill="none" stroke-width="5"/><circle cx="335.4" cy="53.4" r="28.1" stroke="none" fill="#52a4b0" stroke-width="5"/><circle cx="406.59999999999997" cy="53.4" r="30.6" stroke="black" fill="none" stroke-width="5"/><path fill="#52a4b0" d="&#10;      M 406.59999999999997,53.4 &#10;      L 406.6,81.5 &#10;      A 28.1,28.1 0 0 1 378.5,53.4 &#10;      Z&#10;    "/><path fill="#52a4b0" d="&#10;      M 406.59999999999997,53.4 &#10;      L 378.5,53.4 &#10;      A 28.1,28.1 0 0 1 406.6,25.3 &#10;      Z&#10;    "/><path fill="#52a4b0" d="&#10;      M 406.59999999999997,53.4 &#10;      L 406.6,25.3 &#10;      A 28.1,28.1 0 0 1 434.7,53.4 &#10;      Z&#10;    "/><line x1="406.6" y1="84.0" x2="406.59999999999997" y2="53.4" stroke="#000000" stroke-width="5"/><line x1="376.0" y1="53.4" x2="406.59999999999997" y2="53.4" stroke="#000000" stroke-width="5"/><line x1="406.6" y1="22.8" x2="406.59999999999997" y2="53.4" stroke="#000000" stroke-width="5"/><line x1="437.2" y1="53.4" x2="406.59999999999997" y2="53.4" stroke="#000000" stroke-width="5"/><rect x="10" y="11.399999999999999" width="437.19999999999993" height="84" fill="none" stroke="#000000" stroke-width="5"/><circle cx="50.6" cy="173.4" r="30.6" stroke="black" fill="none" stroke-width="5"/><circle cx="50.6" cy="173.4" r="28.1" stroke="none" fill="#52a4b0" stroke-width="5"/><circle cx="121.80000000000001" cy="173.4" r="30.6" stroke="black" fill="none" stroke-width="5"/><circle cx="121.80000000000001" cy="173.4" r="28.1" stroke="none" fill="#52a4b0" stroke-width="5"/><circle cx="193" cy="173.4" r="30.6" stroke="black" fill="none" stroke-width="5"/><circle cx="193" cy="173.4" r="28.1" stroke="none" fill="#52a4b0" stroke-width="5"/><circle cx="264.2" cy="173.4" r="30.6" stroke="black" fill="none" stroke-width="5"/><circle cx="264.2" cy="173.4" r="28.1" stroke="none" fill="#52a4b0" stroke-width="5"/><circle cx="335.4" cy="173.4" r="30.6" stroke="black" fill="none" stroke-width="5"/><circle cx="335.4" cy="173.4" r="28.1" stroke="none" fill="#52a4b0" stroke-width="5"/><circle cx="406.59999999999997" cy="173.4" r="30.6" stroke="black" fill="none" stroke-width="5"/><path fill="#52a4b0" d="&#10;      M 406.59999999999997,173.4 &#10;      L 406.6,201.5 &#10;      A 28.1,28.1 0 0 1 378.5,173.4 &#10;      Z&#10;    "/><path fill="#52a4b0" d="&#10;      M 406.59999999999997,173.4 &#10;      L 378.5,173.4 &#10;      A 28.1,28.1 0 0 1 406.6,145.3 &#10;      Z&#10;    "/><path fill="#52a4b0" d="&#10;      M 406.59999999999997,173.4 &#10;      L 406.6,145.3 &#10;      A 28.1,28.1 0 0 1 434.7,173.4 &#10;      Z&#10;    "/><line x1="406.6" y1="204.0" x2="406.59999999999997" y2="173.4" stroke="#000000" stroke-width="5"/><line x1="376.0" y1="173.4" x2="406.59999999999997" y2="173.4" stroke="#000000" stroke-width="5"/><line x1="406.6" y1="142.8" x2="406.59999999999997" y2="173.4" stroke="#000000" stroke-width="5"/><line x1="437.2" y1="173.4" x2="406.59999999999997" y2="173.4" stroke="#000000" stroke-width="5"/><rect x="10" y="131.4" width="437.19999999999993" height="84" fill="none" stroke="#000000" stroke-width="5"/></svg>