<svg xmlns:dc="http://purl.org/dc/elements/1.1/" xmlns:cc="http://creativecommons.org/ns#" xmlns:rdf="http://www.w3.org/1999/02/22-rdf-syntax-ns#" xmlns:svg="http://www.w3.org/2000/svg" xmlns="http://www.w3.org/2000/svg" xmlns:sodipodi="http://sodipodi.sourceforge.net/DTD/sodipodi-0.dtd" xmlns:inkscape="http://www.inkscape.org/namespaces/inkscape" version="1.1" x="0px" y="0px" viewBox="0 0 100 125"><g transform="translate(0,-952.36218)"><path style="text-indent:0;text-transform:none;direction:ltr;block-progression:tb;baseline-shift:baseline;color:#000000;enable-background:accumulate;" d="m 50.053882,970.36241 c 0.41963,0.009 0.81114,0.14803 1.1875,0.40625 l 38,30.00004 c 0.87429,0.7021 0.99833,1.9978 0.34375,2.8437 -0.64516,0.8338 -2.01747,0.9673 -2.84375,0.3125 l -36.75,-28.99999 -36.75,28.99999 c -0.8263,0.6548 -2.1609,0.5162 -2.8125,-0.3125 -0.6468001,-0.8225 -0.5772001,-2.1888 0.3125,-2.8437 l 14.25,-11.25004 0,-17.15625 a 2.0002,2.0002 0 0 1 2,-2 l 8,0 a 2.0002,2.0002 0 0 1 2,2 l 0,7.6875 11.75,-9.28125 c 0.44512,-0.29323 0.89287,-0.415 1.3125,-0.40625 z m -17.0625,4 -4,0 0,12 4,-3.15625 0,-8.84375 z m 42,22.90625 4,3.15624 0,31.9375 a 2.0001999,2.0001999 0 0 1 -2,2 l -19,0 a 2.0001999,2.0001999 0 0 1 -2,-2 l 0,-12 c 0,-3.3586 -2.64141,-6 -6,-6 -3.35859,0 -6,2.6414 -6,6 l 0,12 a 2.0001999,2.0001999 0 0 1 -2,2 l -19,0 a 2.0001999,2.0001999 0 0 1 -2,-2 l 0,-31.9375 4,-3.15624 0,33.09374 15,0 0,-10 c 0,-5.5054 4.49459,-10 10,-10 5.50541,0 10,4.4946 10,10 l 0,10 15,0 0,-33.09374 z" fill="#000000" fill-opacity="1" stroke="none" marker="none" visibility="visible" display="inline" overflow="visible"/></g><text x="0" y="115" fill="#000000" font-size="5px" font-weight="bold" font-family="'Helvetica Neue', Helvetica, Arial-Unicode, Arial, Sans-serif">Created by il Capitano</text><text x="0" y="120" fill="#000000" font-size="5px" font-weight="bold" font-family="'Helvetica Neue', Helvetica, Arial-Unicode, Arial, Sans-serif">from the Noun Project</text></svg>