<svg id="basic-svg" width="675" height="250" xmlns="http://www.w3.org/2000/svg" xmlns:xlink="http://www.w3.org/1999/xlink" preserveAspectRatio="xMidYMin meet" alt="Fraction Model will be displayed here."><circle cx="112.5" cy="125" r="100" stroke="black" fill="none" stroke-width="5"/><path fill="#52a4b0" d="&#10;      M 112.5,125 &#10;      L 112.5,222.5 &#10;      A 97.5,97.5 0 0 1 28.1,76.3 &#10;      Z&#10;    "/><path fill="#52a4b0" d="&#10;      M 112.5,125 &#10;      L 28.1,76.3 &#10;      A 97.5,97.5 0 0 1 196.9,76.2 &#10;      Z&#10;    "/><path fill="#52a4b0" d="&#10;      M 112.5,125 &#10;      L 196.9,76.2 &#10;      A 97.5,97.5 0 0 1 112.5,222.5 &#10;      Z&#10;    "/><path fill="#52a4b0" d="&#10;      M 112.5,125 &#10;      L 112.5,222.5 &#10;      A 97.5,97.5 0 0 1 28.1,76.3 &#10;      Z&#10;    "/><path fill="#52a4b0" d="&#10;      M 112.5,125 &#10;      L 28.1,76.3 &#10;      A 97.5,97.5 0 0 1 196.9,76.2 &#10;      Z&#10;    "/><path fill="#52a4b0" d="&#10;      M 112.5,125 &#10;      L 196.9,76.2 &#10;      A 97.5,97.5 0 0 1 112.5,222.5 &#10;      Z&#10;    "/><path fill="#52a4b0" d="&#10;      M 112.5,125 &#10;      L 112.5,222.5 &#10;      A 97.5,97.5 0 0 1 28.1,76.3 &#10;      Z&#10;    "/><line x1="112.5" y1="225.0" x2="112.5" y2="125" stroke="black" stroke-width="5"/><line x1="25.9" y1="75.0" x2="112.5" y2="125" stroke="black" stroke-width="5"/><line x1="199.1" y1="75.0" x2="112.5" y2="125" stroke="black" stroke-width="5"/><circle cx="337.5" cy="125" r="100" stroke="black" fill="none" stroke-width="5"/><path fill="#52a4b0" d="&#10;      M 337.5,125 &#10;      L 337.5,222.5 &#10;      A 97.5,97.5 0 0 1 253.1,76.3 &#10;      Z&#10;    "/><path fill="#52a4b0" d="&#10;      M 337.5,125 &#10;      L 253.1,76.3 &#10;      A 97.5,97.5 0 0 1 421.9,76.2 &#10;      Z&#10;    "/><path fill="#52a4b0" d="&#10;      M 337.5,125 &#10;      L 421.9,76.2 &#10;      A 97.5,97.5 0 0 1 337.5,222.5 &#10;      Z&#10;    "/><path fill="#52a4b0" d="&#10;      M 337.5,125 &#10;      L 337.5,222.5 &#10;      A 97.5,97.5 0 0 1 253.1,76.3 &#10;      Z&#10;    "/><line x1="337.5" y1="225.0" x2="337.5" y2="125" stroke="black" stroke-width="5"/><line x1="250.9" y1="75.0" x2="337.5" y2="125" stroke="black" stroke-width="5"/><line x1="424.1" y1="75.0" x2="337.5" y2="125" stroke="black" stroke-width="5"/><circle cx="562.5" cy="125" r="100" stroke="black" fill="none" stroke-width="5"/><path fill="#52a4b0" d="&#10;      M 562.5,125 &#10;      L 562.5,222.5 &#10;      A 97.5,97.5 0 0 1 478.1,76.3 &#10;      Z&#10;    "/><line x1="562.5" y1="225.0" x2="562.5" y2="125" stroke="black" stroke-width="5"/><line x1="475.9" y1="75.0" x2="562.5" y2="125" stroke="black" stroke-width="5"/><line x1="649.1" y1="75.0" x2="562.5" y2="125" stroke="black" stroke-width="5"/></svg>