<svg xmlns="http://www.w3.org/2000/svg" id="multiplication-svg" width="250" height="250" preserveAspectRatio="xMinYMin meet" alt="multiplication visual will be displayed here"><rect x="5" y="5" width="240" height="240" fill="none" stroke="none" stroke-width="0"/><rect x="5" y="5" width="160" height="240" fill="#52a4b0" opacity="0.6" stroke="#000000" stroke-width="0"/><line stroke-width="3.5" stroke="#000000" x1="45" y1="5" x2="45" y2="245"/><line stroke-width="3.5" stroke="#000000" x1="85" y1="5" x2="85" y2="245"/><line stroke-width="3.5" stroke="#000000" x1="125" y1="5" x2="125" y2="245"/><line stroke-width="3.5" stroke="#000000" x1="165" y1="5" x2="165" y2="245"/><line stroke-width="3.5" stroke="#000000" x1="205" y1="5" x2="205" y2="245"/><rect x="5" y="5" width="240" height="240" fill="none" stroke="#000000" stroke-width="5"/><rect x="5" y="5" width="240" height="96" fill="#b7dd82" opacity="0.6" stroke="#000000" stroke-width="0"/><line x1="5" y1="53" x2="245" y2="53" stroke="#000000" stroke-width="3.5"/><line x1="5" y1="101" x2="245" y2="101" stroke="#000000" stroke-width="3.5"/><line x1="5" y1="149" x2="245" y2="149" stroke="#000000" stroke-width="3.5"/><line x1="5" y1="197" x2="245" y2="197" stroke="#000000" stroke-width="3.5"/><rect x="5" y="5" width="240" height="240" fill="none" stroke="#000000" stroke-width="5"/><rect x="5" y="5" width="240" height="240" fill="none" stroke="none" stroke-width="0"/><rect x="5" y="5" width="160" height="240" fill="none" opacity="1" stroke="#000000" stroke-width="0"/><line stroke-width="3.5" stroke="#000000" x1="45" y1="5" x2="45" y2="245"/><line stroke-width="3.5" stroke="#000000" x1="85" y1="5" x2="85" y2="245"/><line stroke-width="3.5" stroke="#000000" x1="125" y1="5" x2="125" y2="245"/><line stroke-width="3.5" stroke="#000000" x1="165" y1="5" x2="165" y2="245"/><line stroke-width="3.5" stroke="#000000" x1="205" y1="5" x2="205" y2="245"/><rect x="5" y="5" width="240" height="240" fill="none" stroke="#000000" stroke-width="5"/></svg>