<svg xmlns="http://www.w3.org/2000/svg" id="division-svg" width="725" height="270" alt="Division model will be displayed here."><circle cx="120.83333333333334" cy="135" r="106.66666666666667" stroke="#000000" fill="none" stroke-width="5"/><circle cx="120.83333333333334" cy="135" r="104.16666666666667" stroke="none" fill="gray" stroke-width="5"/><circle cx="362.5" cy="135" r="106.66666666666667" stroke="#000000" fill="none" stroke-width="5"/><circle cx="362.5" cy="135" r="104.16666666666667" stroke="none" fill="gray" stroke-width="5"/><circle cx="604.1666666666667" cy="135" r="106.66666666666667" stroke="#000000" fill="none" stroke-width="5"/><path fill="gray" d="&#10;      M 604.1666666666667,135 &#10;      L 604.2,239.2 &#10;      A 104.16666666666667,104.16666666666667 0 0 1 505.1,167.2 &#10;      Z&#10;    "/><path fill="gray" d="&#10;      M 604.1666666666667,135 &#10;      L 505.1,167.2 &#10;      A 104.16666666666667,104.16666666666667 0 0 1 542.9,50.7 &#10;      Z&#10;    "/><path fill="gray" d="&#10;      M 604.1666666666667,135 &#10;      L 542.9,50.7 &#10;      A 104.16666666666667,104.16666666666667 0 0 1 665.4,50.7 &#10;      Z&#10;    "/><line x1="604.2" y1="241.7" x2="604.1666666666667" y2="135" stroke="#000000" stroke-width="5"/><line x1="502.7" y1="168.0" x2="604.1666666666667" y2="135" stroke="#000000" stroke-width="5"/><line x1="541.5" y1="48.7" x2="604.1666666666667" y2="135" stroke="#000000" stroke-width="5"/><line x1="666.9" y1="48.7" x2="604.1666666666667" y2="135" stroke="#000000" stroke-width="5"/><line x1="705.6" y1="168.0" x2="604.1666666666667" y2="135" stroke="#000000" stroke-width="5"/><path fill="#52a4b0" d="&#10;      M 120.83333333333334,135 &#10;      L 120.8,239.2 &#10;      A 104.16666666666667,104.16666666666667 0 0 1 21.8,167.2 &#10;      Z&#10;    "/><path fill="#52a4b0" d="&#10;      M 120.83333333333334,135 &#10;      L 21.7,166.9 &#10;      A 104.16666666666667,104.16666666666667 0 0 1 59.8,50.6 &#10;      Z&#10;    "/><path fill="#b7dd82" d="&#10;      M 120.83333333333334,135 &#10;      L 60.1,50.4 &#10;      A 104.16666666666667,104.16666666666667 0 0 1 182.6,51.1 &#10;      Z&#10;    "/><path fill="#b7dd82" d="&#10;      M 120.83333333333334,135 &#10;      L 182.8,51.3 &#10;      A 104.16666666666667,104.16666666666667 0 0 1 219.6,168.1 &#10;      Z&#10;    "/><path fill="#f0a68c" d="&#10;      M 120.83333333333334,135 &#10;      L 219.5,168.4 &#10;      A 104.16666666666667,104.16666666666667 0 0 1 119.5,239.2 &#10;      Z&#10;    "/><line x1="221.9" y1="169.2" x2="120.83333333333334" y2="135" stroke="#000000" stroke-width="5"/><line x1="119.5" y1="241.7" x2="120.83333333333334" y2="135" stroke="#000000" stroke-width="5"/><line x1="19.0" y1="166.7" x2="120.83333333333334" y2="135" stroke="#000000" stroke-width="5"/><line x1="59.2" y1="47.9" x2="120.83333333333334" y2="135" stroke="#000000" stroke-width="5"/><line x1="184.6" y1="49.5" x2="120.83333333333334" y2="135" stroke="#000000" stroke-width="5"/><path fill="#f0a68c" d="&#10;      M 362.5,135 &#10;      L 362.5,239.2 &#10;      A 104.16666666666667,104.16666666666667 0 0 1 263.4,167.2 &#10;      Z&#10;    "/><path fill="#f5ef84" d="&#10;      M 362.5,135 &#10;      L 263.3,166.9 &#10;      A 104.16666666666667,104.16666666666667 0 0 1 301.5,50.6 &#10;      Z&#10;    "/><path fill="#f5ef84" d="&#10;      M 362.5,135 &#10;      L 301.8,50.4 &#10;      A 104.16666666666667,104.16666666666667 0 0 1 424.2,51.1 &#10;      Z&#10;    "/><path fill="#52a4b0" d="&#10;      M 362.5,135 &#10;      L 424.5,51.3 &#10;      A 104.16666666666667,104.16666666666667 0 0 1 461.3,168.1 &#10;      Z&#10;    "/><path fill="#52a4b0" d="&#10;      M 362.5,135 &#10;      L 461.2,168.4 &#10;      A 104.16666666666667,104.16666666666667 0 0 1 361.2,239.2 &#10;      Z&#10;    "/><line x1="463.5" y1="169.2" x2="362.5" y2="135" stroke="#000000" stroke-width="5"/><line x1="361.2" y1="241.7" x2="362.5" y2="135" stroke="#000000" stroke-width="5"/><line x1="260.6" y1="166.7" x2="362.5" y2="135" stroke="#000000" stroke-width="5"/><line x1="300.9" y1="47.9" x2="362.5" y2="135" stroke="#000000" stroke-width="5"/><line x1="426.3" y1="49.5" x2="362.5" y2="135" stroke="#000000" stroke-width="5"/><path fill="#b7dd82" d="&#10;      M 604.1666666666667,135 &#10;      L 604.2,239.2 &#10;      A 104.16666666666667,104.16666666666667 0 0 1 505.1,167.2 &#10;      Z&#10;    "/><path fill="#b7dd82" d="&#10;      M 604.1666666666667,135 &#10;      L 505.0,166.9 &#10;      A 104.16666666666667,104.16666666666667 0 0 1 543.2,50.6 &#10;      Z&#10;    "/><path fill="#f0a68c" d="&#10;      M 604.1666666666667,135 &#10;      L 543.4,50.4 &#10;      A 104.16666666666667,104.16666666666667 0 0 1 665.9,51.1 &#10;      Z&#10;    "/><line x1="542.0" y1="48.3" x2="604.1666666666667" y2="135" stroke="#000000" stroke-width="5"/><line x1="667.4" y1="49.1" x2="604.1666666666667" y2="135" stroke="#000000" stroke-width="5"/><line x1="705.4" y1="168.6" x2="604.1666666666667" y2="135" stroke="#000000" stroke-width="5"/><line x1="603.5" y1="241.7" x2="604.1666666666667" y2="135" stroke="#000000" stroke-width="5"/><line x1="502.5" y1="167.4" x2="604.1666666666667" y2="135" stroke="#000000" stroke-width="5"/></svg>