<svg xmlns="http://www.w3.org/2000/svg" id="division-svg" width="800" height="270" alt="Division model will be displayed here."><rect x="5" y="5" width="790" height="260" fill="none" stroke="none" stroke-width="0"/><rect x="5" y="5" width="526.66" height="260" fill="#cdcdcd" opacity="1" stroke="#000000" stroke-width="0"/><line stroke-width="3.5" stroke="#000000" x1="268.33" y1="5" x2="268.33" y2="265"/><line stroke-width="3.5" stroke="#000000" x1="531.66" y1="5" x2="531.66" y2="265"/><rect x="5" y="5" width="790" height="260" fill="none" stroke="#000000" stroke-width="5"/><rect x="5" y="5" width="263" height="260" fill="none" stroke="none" stroke-width="0"/><rect x="5" y="5" width="65.75" height="260" fill="#52a4b0" opacity="1" stroke="#000000" stroke-width="0"/><line stroke-width="1.75" stroke="#000000" x1="70.75" y1="5" x2="70.75" y2="265"/><line stroke-width="1.75" stroke="#000000" x1="136.5" y1="5" x2="136.5" y2="265"/><line stroke-width="1.75" stroke="#000000" x1="202.25" y1="5" x2="202.25" y2="265"/><rect x="5" y="5" width="263" height="260" fill="none" stroke="#000000" stroke-width="2.5"/><rect x="268" y="5" width="263" height="260" fill="none" stroke="none" stroke-width="0"/><rect x="268" y="5" width="65.75" height="260" fill="#52a4b0" opacity="1" stroke="#000000" stroke-width="0"/><line stroke-width="1.75" stroke="#000000" x1="333.75" y1="5" x2="333.75" y2="265"/><line stroke-width="1.75" stroke="#000000" x1="399.5" y1="5" x2="399.5" y2="265"/><line stroke-width="1.75" stroke="#000000" x1="465.25" y1="5" x2="465.25" y2="265"/><rect x="268" y="5" width="263" height="260" fill="none" stroke="#000000" stroke-width="2.5"/><rect x="5" y="5" width="790" height="260" fill="none" stroke="none" stroke-width="0"/><rect x="5" y="5" width="526.66" height="260" fill="transparent" opacity="1" stroke="#000000" stroke-width="0"/><line stroke-width="3.5" stroke="#000000" x1="268.33" y1="5" x2="268.33" y2="265"/><line stroke-width="3.5" stroke="#000000" x1="531.66" y1="5" x2="531.66" y2="265"/><rect x="5" y="5" width="790" height="260" fill="none" stroke="#000000" stroke-width="5"/></svg>